<svg width="25" height="24" viewBox="0 0 25 24" fill="none" xmlns="http://www.w3.org/2000/svg">
<rect width="25" height="24" fill="#BFBEBE"/>
<g clip-path="url(#clip0_2170_12538)">
<rect x="-93" y="-624" width="375" height="812" rx="32" fill="#F9F7F4"/>
<rect x="-76.5" y="-15.5" width="342" height="55" rx="11.5" fill="white"/>
<rect x="-76.5" y="-15.5" width="342" height="55" rx="11.5" stroke="#E1DED9"/>
<path d="M15.7907 2C14.7245 2.07375 13.4782 2.75624 12.752 3.64499C12.0895 4.45123 11.5445 5.64872 11.757 6.81246C12.922 6.84871 14.1257 6.14997 14.8232 5.24622C15.4757 4.40498 15.9694 3.21499 15.7907 2Z" fill="black"/>
<path d="M20.0044 8.70995C18.9807 7.42621 17.5419 6.68121 16.1832 6.68121C14.3894 6.68121 13.6307 7.53996 12.3845 7.53996C11.0995 7.53996 10.1232 6.68371 8.57199 6.68371C7.04825 6.68371 5.42577 7.61496 4.39702 9.20744C2.95079 11.4499 3.19828 15.6661 5.54201 19.2574C6.38076 20.5424 7.50075 21.9873 8.96574 21.9998C10.2695 22.0123 10.637 21.1636 12.4032 21.1548C14.1694 21.1448 14.5044 22.0111 15.8057 21.9973C17.2719 21.9861 18.4532 20.3849 19.2919 19.0999C19.8932 18.1786 20.1169 17.7149 20.5831 16.6749C17.1919 15.3836 16.6482 10.5612 20.0044 8.70995Z" fill="black"/>
</g>
<defs>
<clipPath id="clip0_2170_12538">
<rect x="-93" y="-624" width="375" height="812" rx="32" fill="white"/>
</clipPath>
</defs>
</svg>
