<svg width="24" height="24" viewBox="0 0 24 24" fill="none" xmlns="http://www.w3.org/2000/svg">
<path d="M6.70404 12.7959L14.204 20.2959C14.4154 20.5073 14.702 20.626 15.0009 20.626C15.2998 20.626 15.5864 20.5073 15.7978 20.2959C16.0091 20.0846 16.1279 19.7979 16.1279 19.4991C16.1279 19.2002 16.0091 18.9135 15.7978 18.7022L9.09373 12L15.7959 5.29594C15.9006 5.19129 15.9836 5.06705 16.0402 4.93033C16.0968 4.7936 16.126 4.64705 16.126 4.49906C16.126 4.35107 16.0968 4.20452 16.0402 4.06779C15.9836 3.93107 15.9006 3.80683 15.7959 3.70219C15.6913 3.59754 15.567 3.51453 15.4303 3.45789C15.2936 3.40126 15.147 3.37211 14.999 3.37211C14.851 3.37211 14.7045 3.40126 14.5678 3.45789C14.431 3.51453 14.3068 3.59754 14.2022 3.70219L6.70217 11.2022C6.59741 11.3068 6.51434 11.4311 6.45772 11.5679C6.4011 11.7047 6.37204 11.8514 6.37222 11.9994C6.37239 12.1475 6.40179 12.2941 6.45874 12.4308C6.51568 12.5674 6.59904 12.6915 6.70404 12.7959Z" fill="#2A2A2A"/>
</svg>
