<svg width="207" height="222" viewBox="0 0 207 222" fill="none" xmlns="http://www.w3.org/2000/svg">
<mask id="mask0_2170_12829" style="mask-type:alpha" maskUnits="userSpaceOnUse" x="20" y="50" width="166" height="166">
<path d="M103 215.687C148.562 215.687 185.5 178.822 185.5 133.187C185.5 87.5519 148.399 50.6867 103 50.6867C57.4379 50.6867 20.5 87.5519 20.5 133.187C20.5 178.822 57.4379 215.687 103 215.687Z" fill="#0F131D"/>
</mask>
<g mask="url(#mask0_2170_12829)">
<path d="M103 215.687C148.562 215.687 185.5 178.822 185.5 133.187C185.5 87.5519 148.399 50.6867 103 50.6867C57.4379 50.6867 20.5 87.5519 20.5 133.187C20.5 178.822 57.4379 215.687 103 215.687Z" fill="#F5F0EA"/>
<path d="M104.227 166.334L133.973 149.081C137.456 146.969 141.967 147.79 144.483 150.992C146.905 154.075 146.755 158.455 144.128 161.366L111.068 175.556L104.227 166.334Z" fill="#FFCBBE"/>
<circle cx="101.926" cy="130.406" r="35.4064" fill="#D66747"/>
<mask id="mask1_2170_12829" style="mask-type:alpha" maskUnits="userSpaceOnUse" x="66" y="95" width="72" height="71">
<circle cx="101.926" cy="130.406" r="35.4064" fill="#3827F9"/>
</mask>
<g mask="url(#mask1_2170_12829)">
<g style="mix-blend-mode:screen" filter="url(#filter0_f_2170_12829)">
<circle cx="114.393" cy="120.034" r="19.027" fill="#FFD7CE"/>
</g>
<g style="mix-blend-mode:multiply" filter="url(#filter1_f_2170_12829)">
<path d="M134.53 149.552C130.632 159.31 102.89 184.504 84.7528 177.259C66.6151 170.014 59.8024 130.979 63.7006 121.22C67.5987 111.462 75.5306 146.121 93.6683 153.366C111.806 160.611 138.428 139.793 134.53 149.552Z" fill="#4E1300"/>
</g>
</g>
<path d="M153.313 154.129C150.798 150.927 146.286 150.107 142.806 152.216L124.404 163.374L88.9564 158.944L102.179 149.47C104.314 147.942 105.541 145.493 105.541 142.929C105.541 142.394 105.487 141.855 105.376 141.32C104.508 137.055 100.401 134.254 96.1128 134.999L94.0359 135.36C93.8321 135.395 93.6307 135.432 93.4268 135.472C93.4246 135.472 93.4223 135.474 93.4199 135.474C91.5351 135.821 89.6713 136.263 87.8376 136.791C87.5528 136.87 87.2703 136.956 86.9856 137.044C80.285 139.088 73.9873 142.322 68.403 146.613L56.419 155.814V155.816L29.9646 172.335L35.005 181.101L41.2865 192.02L48.598 205L75.0528 188.482L127.846 186.894C129.744 186.837 131.618 186.362 133.269 185.424C134.348 184.811 135.331 184.025 136.177 183.089L147.462 170.591L152.961 164.501C154.341 162.973 155.035 161.042 155.035 159.104C155.035 157.352 154.466 155.594 153.313 154.129Z" fill="#FFDDCE"/>
<path d="M93.4203 135.474C83.6636 138.452 63.4864 154.45 62.1753 161.825C60.4643 171.45 42.9224 184.172 35.005 181.101L29.9646 172.335L56.4195 155.817V155.814L68.4035 146.613C73.988 142.323 80.2856 139.088 86.986 137.044C87.2708 136.956 87.5533 136.87 87.838 136.792C89.672 136.264 91.5358 135.821 93.4203 135.474Z" fill="#FFCBBE"/>
</g>
<path d="M29.1649 37.1836L24.1514 40.4299C24.1514 40.4299 26.9715 48.837 34.072 47.7998C35.023 47.6499 35.9436 47.3473 36.7981 46.9036L38.9476 45.8132C38.9476 45.8132 32.3172 47.6839 29.1649 37.1836Z" fill="#2C9E53"/>
<path d="M141.631 29.0625H143.832C143.592 25.4389 141.676 20.6122 132.953 21.4791L132.09 27.3941C132.09 27.3941 138.314 26.1214 141.631 29.0625Z" fill="#DE4E4E"/>
<path d="M24.7898 62.3029C24.4585 62.8147 24.0472 63.27 23.5716 63.6515L17.8624 69.9714C20.7465 69.6208 23.0856 69.4621 24.8676 65.2318C24.8676 65.2318 25.855 63.0497 25.6973 61.2984L24.7898 62.3029Z" fill="#2C9E53"/>
<path d="M158.385 66.5389L156.477 70.7159H161.268L162.982 66.5389H158.385Z" fill="#DE4E4E"/>
<path d="M52.6035 23.8874L54.3207 28.1584L58.0683 26.0213L56.9121 22.28L52.6035 23.8874Z" fill="#FFD735"/>
<path d="M72.0234 9.28553L76.6203 8.27968C76.6203 8.27968 78.2904 11.8926 81.4239 12.1433C81.4239 12.1433 75.5799 13.8949 72.0234 9.28553Z" fill="#FFD735"/>
<path d="M106.348 33.3405L110.49 35.5716C110.49 35.5716 113.085 32.5728 116.171 33.1839C116.171 33.1839 111.029 29.8874 106.348 33.3405Z" fill="#DE4E4E"/>
<path d="M107.917 12.5627L103.8 10.2878C103.8 10.2878 104.915 6.48064 102.734 4.21513C102.734 4.22453 108.287 6.75638 107.917 12.5627Z" fill="#317DD7"/>
<path d="M176.8 84.989L177.32 90.6293L181.5 88.7492L180.751 84.1524L176.8 84.989Z" fill="#FFD735"/>
<path d="M171.498 37.1836C171.498 37.1836 176.599 37.8918 178.884 41.6519L176.781 42.2128C176.781 42.2128 176.646 42.8395 176.468 44.6757C176.468 44.6757 172.438 41.4514 169.574 39.9755C169.574 39.9755 170.693 38.766 171.454 38.766L171.498 37.1836Z" fill="#2C9E53"/>
<path d="M87.4367 26.065L85.5723 31.9748L91.1373 30.6148L92.1933 25.4415L87.4367 26.065Z" fill="#317DD7"/>
<path d="M32.7324 86.6763L35.985 90.2297L39.037 85.4417L35.985 82.3459L32.7324 86.6763Z" fill="#2C9E53"/>
<path d="M154.834 15.054L152.412 18.8142H156.965L160.935 15.054H154.834Z" fill="#317DD7"/>
<defs>
<filter id="filter0_f_2170_12829" x="74.2415" y="79.8833" width="80.302" height="80.302" filterUnits="userSpaceOnUse" color-interpolation-filters="sRGB">
<feFlood flood-opacity="0" result="BackgroundImageFix"/>
<feBlend mode="normal" in="SourceGraphic" in2="BackgroundImageFix" result="shape"/>
<feGaussianBlur stdDeviation="10.562" result="effect1_foregroundBlur_2170_12829"/>
</filter>
<filter id="filter1_f_2170_12829" x="41.5162" y="98.3775" width="114.522" height="101.296" filterUnits="userSpaceOnUse" color-interpolation-filters="sRGB">
<feFlood flood-opacity="0" result="BackgroundImageFix"/>
<feBlend mode="normal" in="SourceGraphic" in2="BackgroundImageFix" result="shape"/>
<feGaussianBlur stdDeviation="10.562" result="effect1_foregroundBlur_2170_12829"/>
</filter>
</defs>
</svg>
