<svg width="24" height="24" viewBox="0 0 24 24" fill="none" xmlns="http://www.w3.org/2000/svg">
<rect width="24" height="24" fill="#BFBEBE"/>
<g clip-path="url(#clip0_2170_12538)">
<rect x="-89" y="-552" width="375" height="812" rx="32" fill="#F9F7F4"/>
<rect x="-72.5" y="-15.5" width="342" height="55" rx="11.5" fill="white"/>
<rect x="-72.5" y="-15.5" width="342" height="55" rx="11.5" stroke="#E1DED9"/>
<path d="M21.2448 10.2614L13.087 10.261C12.7268 10.261 12.4348 10.5529 12.4348 10.9132V13.5192C12.4348 13.8794 12.7268 14.1714 13.087 14.1714H17.681C17.1779 15.4769 16.239 16.5702 15.0411 17.2649L17 20.6559C20.1423 18.8386 22 15.65 22 12.0805C22 11.5723 21.9625 11.209 21.8876 10.7999C21.8307 10.489 21.5608 10.2614 21.2448 10.2614Z" fill="#167EE6"/>
<path d="M11.9999 18.0869C9.75167 18.0869 7.78902 16.8586 6.73491 15.0409L3.34406 16.9953C5.06964 19.9861 8.30222 22 11.9999 22C13.8138 22 15.5254 21.5116 16.9999 20.6605V20.6558L15.041 17.2648C14.145 17.7845 13.1081 18.0869 11.9999 18.0869Z" fill="#12B347"/>
<path d="M17 20.6604V20.6558L15.0411 17.2648C14.1451 17.7844 13.1083 18.0869 12 18.0869V22C13.8139 22 15.5256 21.5116 17 20.6604Z" fill="#0F993E"/>
<path d="M5.91305 11.9999C5.91305 10.8918 6.21547 9.85501 6.73504 8.95903L3.34418 7.00458C2.48836 8.47438 2 10.1813 2 11.9999C2 13.8185 2.48836 15.5255 3.34418 16.9953L6.73504 15.0408C6.21547 14.1449 5.91305 13.1081 5.91305 11.9999Z" fill="#FFD500"/>
<path d="M11.9999 5.91305C13.4659 5.91305 14.8126 6.43398 15.8644 7.30051C16.1239 7.51426 16.501 7.49883 16.7387 7.26113L18.5852 5.41465C18.8549 5.14496 18.8357 4.70352 18.5476 4.45359C16.7853 2.92473 14.4923 2 11.9999 2C8.30222 2 5.06964 4.01395 3.34406 7.00465L6.73491 8.9591C7.78902 7.14141 9.75167 5.91305 11.9999 5.91305Z" fill="#FF4B26"/>
<path d="M15.8645 7.30051C16.124 7.51426 16.5012 7.49883 16.7389 7.26113L18.5854 5.41465C18.855 5.14496 18.8358 4.70352 18.5477 4.45359C16.7854 2.92469 14.4925 2 12 2V5.91305C13.466 5.91305 14.8127 6.43398 15.8645 7.30051Z" fill="#D93F21"/>
</g>
<defs>
<clipPath id="clip0_2170_12538">
<rect x="-89" y="-552" width="375" height="812" rx="32" fill="white"/>
</clipPath>
</defs>
</svg>
